<svg width="330" height="59" viewBox="0 0 330 59" fill="none" xmlns="http://www.w3.org/2000/svg">
<g clip-path="url(#clip0_1_950)">
<path d="M330 -1.52588e-05H-3.05176e-05V58.7537H330V-1.52588e-05Z" fill="#FF267E"/>
<path d="M107.031 28.2259H87.391V22.5245H111.149V14.6539H76.0029V43.967H87.391V36.0964H107.031V28.2259Z" fill="#000055"/>
<path d="M169.453 34.1764L159.032 14.6539H145.958L162.887 43.967H175.858L192.771 14.6539H179.888L169.453 34.1764Z" fill="#000055"/>
<path d="M229.279 29.0759C231.883 28.0661 233.628 25.5672 233.676 22.7736C233.676 17.9663 229.616 14.6539 221.628 14.6539H195.848V43.967H222.229C230.803 43.967 234.614 40.5814 234.614 35.6714C234.555 32.9306 232.899 30.4537 229.279 29.0759ZM206.942 21.7477H219.65C219.795 21.7183 219.943 21.7037 220.091 21.7037C221.322 21.7037 222.333 22.7165 222.333 23.9461C222.333 25.1758 221.322 26.1886 220.091 26.1886C219.943 26.1886 219.795 26.1739 219.65 26.1446H206.942V21.7477ZM220.573 36.9905H206.942V32.5935H220.573C220.718 32.5642 220.866 32.5496 221.014 32.5496C222.245 32.5496 223.257 33.5623 223.257 34.792C223.257 36.0217 222.245 37.0345 221.014 37.0345C220.866 37.0345 220.718 37.0198 220.573 36.9905Z" fill="#000055"/>
<path d="M251.35 32.4909H270.96V26.13H251.35V22.5245H273.027V14.6539H239.962V43.967H273.54V36.0964H251.35V32.4909Z" fill="#000055"/>
<path d="M278.245 14.6539V22.5245H291.026V43.967H302.546V22.5245H315.311V14.6539H278.245Z" fill="#000055"/>
<path d="M124.382 14.6539L107.468 43.967H119.574L121.861 39.6433H139.947L142.233 43.967H154.838L137.91 14.6539H124.382ZM125.847 32.0366L130.845 22.5977L135.843 32.0366H125.847Z" fill="#000055"/>
<path d="M15.1483 26.1443L25.2466 43.9667H38.2176L28.1046 26.1443H15.1483Z" fill="#000055"/>
<path d="M48.3164 26.1443L38.218 43.9667H51.1744L61.2727 26.1443H48.3164Z" fill="#000055"/>
<path d="M38.2172 8.3653L28.1042 26.1437H48.3156L38.2172 8.3653Z" fill="#000055"/>
</g>
<defs>
<clipPath id="clip0_1_950">
<rect width="330" height="59" fill="white"/>
</clipPath>
</defs>
</svg>
